<svg width="1072" height="228" viewBox="0 0 1072 228" fill="none" xmlns="http://www.w3.org/2000/svg">
<path d="M74.802 178.912C65.2167 178.912 56.3593 177.153 48.23 173.634C40.1007 170.115 33.0027 165.262 26.936 159.074C20.9907 152.765 16.3193 145.545 12.922 137.416C9.646 129.165 8.008 120.308 8.008 110.844C8.008 101.38 9.646 92.5833 12.922 84.454C16.3193 76.2033 20.9907 68.984 26.936 62.796C33.0027 56.4867 40.1007 51.5727 48.23 48.054C56.3593 44.5353 65.2167 42.776 74.802 42.776C84.3873 42.776 93.2447 44.5353 101.374 48.054C109.503 51.5727 116.541 56.4867 122.486 62.796C128.553 68.984 133.224 76.2033 136.5 84.454C139.897 92.5833 141.596 101.38 141.596 110.844C141.596 120.308 139.897 129.165 136.5 137.416C133.224 145.545 128.553 152.765 122.486 159.074C116.541 165.262 109.503 170.115 101.374 173.634C93.2447 177.153 84.3873 178.912 74.802 178.912ZM74.802 164.17C84.266 164.17 92.82 161.925 100.464 157.436C108.229 152.947 114.417 146.698 119.028 138.69C123.639 130.561 125.944 121.279 125.944 110.844C125.944 100.288 123.639 91.006 119.028 82.998C114.417 74.99 108.229 68.7413 100.464 64.252C92.82 59.7627 84.266 57.518 74.802 57.518C65.4593 57.518 56.9053 59.7627 49.14 64.252C41.3747 68.7413 35.1867 74.99 30.576 82.998C25.9653 91.006 23.66 100.288 23.66 110.844C23.66 121.279 25.9653 130.561 30.576 138.69C35.1867 146.698 41.3747 152.947 49.14 157.436C56.9053 161.925 65.4593 164.17 74.802 164.17ZM160.936 215.312V83.18H175.678V97.012H176.406C178.105 94.1 180.471 91.37 183.504 88.822C186.659 86.274 190.299 84.2113 194.424 82.634C198.55 81.0567 203.1 80.268 208.074 80.268C216.568 80.268 224.151 82.3913 230.824 86.638C237.498 90.8847 242.776 96.7087 246.658 104.11C250.541 111.511 252.482 120.005 252.482 129.59C252.482 139.175 250.541 147.669 246.658 155.07C242.776 162.471 237.498 168.295 230.824 172.542C224.151 176.789 216.568 178.912 208.074 178.912C200.673 178.912 194.182 177.213 188.6 173.816C183.019 170.419 178.954 166.597 176.406 162.35H175.678L176.406 175.09V215.312H160.936ZM206.436 164.898C211.775 164.898 216.75 163.503 221.36 160.712C226.092 157.8 229.854 153.675 232.644 148.336C235.556 142.997 237.012 136.749 237.012 129.59C237.012 122.31 235.556 116.061 232.644 110.844C229.854 105.505 226.092 101.441 221.36 98.65C216.75 95.738 211.775 94.282 206.436 94.282C201.098 94.282 196.062 95.738 191.33 98.65C186.72 101.441 182.958 105.505 180.046 110.844C177.134 116.061 175.678 122.31 175.678 129.59C175.678 136.87 177.134 143.179 180.046 148.518C182.958 153.735 186.72 157.8 191.33 160.712C196.062 163.503 201.098 164.898 206.436 164.898ZM311.379 178.912C302.401 178.912 294.393 176.789 287.355 172.542C280.439 168.295 274.979 162.471 270.975 155.07C267.093 147.669 265.151 139.236 265.151 129.772C265.151 120.915 266.971 112.725 270.611 105.202C274.373 97.6793 279.59 91.6733 286.263 87.184C293.058 82.5733 301.005 80.268 310.105 80.268C319.327 80.268 327.213 82.3307 333.765 86.456C340.439 90.46 345.535 96.0413 349.053 103.2C352.693 110.359 354.513 118.549 354.513 127.77C354.513 128.619 354.453 129.469 354.331 130.318C354.331 131.167 354.271 131.895 354.149 132.502H280.621C280.985 139.175 282.502 144.817 285.171 149.428C288.205 154.645 292.087 158.528 296.819 161.076C301.673 163.624 306.708 164.898 311.925 164.898C318.72 164.898 324.301 163.321 328.669 160.166C333.159 156.89 336.738 152.886 339.407 148.154L352.511 154.524C348.871 161.561 343.654 167.385 336.859 171.996C330.065 176.607 321.571 178.912 311.379 178.912ZM281.531 119.762H338.133C338.012 117.214 337.405 114.484 336.313 111.572C335.343 108.539 333.705 105.748 331.399 103.2C329.215 100.531 326.364 98.4073 322.845 96.83C319.448 95.1313 315.201 94.282 310.105 94.282C304.039 94.282 298.761 95.8593 294.271 99.014C289.903 102.047 286.567 106.233 284.261 111.572C283.048 114.12 282.138 116.85 281.531 119.762ZM372.085 176V83.18H386.827V96.83H387.555C389.981 92.3407 393.925 88.458 399.385 85.182C404.966 81.906 411.033 80.268 417.585 80.268C428.99 80.268 437.544 83.6047 443.247 90.278C449.071 96.83 451.983 105.566 451.983 116.486V176H436.513V118.852C436.513 109.873 434.329 103.564 429.961 99.924C425.714 96.1627 420.193 94.282 413.399 94.282C408.303 94.282 403.813 95.738 399.931 98.65C396.048 101.441 393.015 105.081 390.831 109.57C388.647 114.059 387.555 118.791 387.555 123.766V176H372.085ZM463.557 217.132C461.858 217.132 460.342 217.011 459.007 216.768C457.672 216.525 456.459 216.222 455.367 215.858V201.116C456.338 201.601 457.551 202.026 459.007 202.39C460.463 202.875 461.798 203.118 463.011 203.118C466.894 203.118 469.624 201.905 471.201 199.478C472.9 197.051 473.749 193.593 473.749 189.104V83.18H489.219V189.104C489.219 195.535 488.127 200.813 485.943 204.938C483.88 209.063 480.908 212.097 477.025 214.038C473.264 216.101 468.774 217.132 463.557 217.132ZM481.393 66.072C478.36 66.072 475.751 64.98 473.567 62.796C471.383 60.612 470.291 58.0033 470.291 54.97C470.291 51.8153 471.383 49.2067 473.567 47.144C475.751 44.96 478.36 43.868 481.393 43.868C484.548 43.868 487.156 44.96 489.219 47.144C491.403 49.2067 492.495 51.8153 492.495 54.97C492.495 58.0033 491.403 60.612 489.219 62.796C487.156 64.98 484.548 66.072 481.393 66.072ZM554.554 178.912C545.211 178.912 536.961 176.728 529.802 172.36C522.643 167.992 517.001 162.107 512.876 154.706C508.872 147.183 506.87 138.811 506.87 129.59C506.87 120.369 508.872 112.057 512.876 104.656C517.001 97.1333 522.643 91.188 529.802 86.82C536.961 82.452 545.211 80.268 554.554 80.268C563.897 80.268 572.147 82.5127 579.306 87.002C586.465 91.37 592.046 97.3153 596.05 104.838C600.175 112.239 602.238 120.49 602.238 129.59C602.238 138.811 600.175 147.183 596.05 154.706C592.046 162.107 586.465 167.992 579.306 172.36C572.147 176.728 563.897 178.912 554.554 178.912ZM554.554 164.898C560.135 164.898 565.353 163.503 570.206 160.712C575.181 157.921 579.185 153.917 582.218 148.7C585.251 143.361 586.768 136.991 586.768 129.59C586.768 122.189 585.251 115.879 582.218 110.662C579.185 105.323 575.181 101.259 570.206 98.468C565.353 95.6773 560.135 94.282 554.554 94.282C548.973 94.282 543.695 95.6773 538.72 98.468C533.745 101.259 529.741 105.323 526.708 110.662C523.675 115.879 522.158 122.189 522.158 129.59C522.158 136.991 523.675 143.361 526.708 148.7C529.741 153.917 533.745 157.921 538.72 160.712C543.695 163.503 548.973 164.898 554.554 164.898ZM653.517 178.912C642.111 178.912 633.497 175.575 627.673 168.902C621.97 162.229 619.119 153.129 619.119 141.602V83.18H634.589V139.236C634.589 148.457 636.712 155.07 640.959 159.074C645.205 162.957 650.483 164.898 656.793 164.898C662.253 164.898 666.985 163.503 670.989 160.712C674.993 157.8 678.087 154.099 680.271 149.61C682.455 145.121 683.547 140.449 683.547 135.596V83.18H699.017V176H684.275V162.532H683.547C681.969 165.444 679.603 168.174 676.449 170.722C673.415 173.149 669.897 175.09 665.893 176.546C662.01 178.123 657.885 178.912 653.517 178.912ZM721.511 176V83.18H736.253V98.104H736.981C738.194 94.5853 740.196 91.552 742.987 89.004C745.899 86.3347 749.175 84.272 752.815 82.816C756.576 81.2387 760.277 80.45 763.917 80.45C766.707 80.45 768.891 80.632 770.469 80.996C772.046 81.2387 773.502 81.6633 774.837 82.27V99.014C772.895 98.0433 770.772 97.3153 768.467 96.83C766.283 96.3447 764.038 96.102 761.733 96.102C757.243 96.102 753.118 97.376 749.357 99.924C745.595 102.472 742.562 105.869 740.257 110.116C738.073 114.363 736.981 119.034 736.981 124.13V176H721.511ZM788.872 176V83.18H803.614V96.83H804.342C806.769 92.3407 810.712 88.458 816.172 85.182C821.753 81.906 827.82 80.268 834.372 80.268C845.777 80.268 854.331 83.6047 860.034 90.278C865.858 96.83 868.77 105.566 868.77 116.486V176H853.3V118.852C853.3 109.873 851.116 103.564 846.748 99.924C842.501 96.1627 836.981 94.282 830.186 94.282C825.09 94.282 820.601 95.738 816.718 98.65C812.835 101.441 809.802 105.081 807.618 109.57C805.434 114.059 804.342 118.791 804.342 123.766V176H788.872ZM931.85 178.912C922.871 178.912 914.863 176.789 907.826 172.542C900.91 168.295 895.45 162.471 891.446 155.07C887.563 147.669 885.622 139.236 885.622 129.772C885.622 120.915 887.442 112.725 891.082 105.202C894.843 97.6793 900.061 91.6733 906.734 87.184C913.529 82.5733 921.476 80.268 930.576 80.268C939.797 80.268 947.684 82.3307 954.236 86.456C960.909 90.46 966.005 96.0413 969.524 103.2C973.164 110.359 974.984 118.549 974.984 127.77C974.984 128.619 974.923 129.469 974.802 130.318C974.802 131.167 974.741 131.895 974.62 132.502H901.092C901.456 139.175 902.973 144.817 905.642 149.428C908.675 154.645 912.558 158.528 917.29 161.076C922.143 163.624 927.179 164.898 932.396 164.898C939.191 164.898 944.772 163.321 949.14 160.166C953.629 156.89 957.209 152.886 959.878 148.154L972.982 154.524C969.342 161.561 964.125 167.385 957.33 171.996C950.535 176.607 942.042 178.912 931.85 178.912ZM902.002 119.762H958.604C958.483 117.214 957.876 114.484 956.784 111.572C955.813 108.539 954.175 105.748 951.87 103.2C949.686 100.531 946.835 98.4073 943.316 96.83C939.919 95.1313 935.672 94.282 930.576 94.282C924.509 94.282 919.231 95.8593 914.742 99.014C910.374 102.047 907.037 106.233 904.732 111.572C903.519 114.12 902.609 116.85 902.002 119.762ZM1016.08 210.58C1015.71 211.429 1015.29 212.339 1014.8 213.31C1014.32 214.402 1014.01 215.069 1013.89 215.312H997.876C998.604 213.735 999.393 211.975 1000.24 210.034C1001.09 208.214 1002.12 205.969 1003.34 203.3C1004.06 201.723 1004.73 200.267 1005.34 198.932C1005.94 197.597 1006.61 196.081 1007.34 194.382C1008.19 192.805 1009.16 190.803 1010.25 188.376L1018.62 170.176L980.222 83.18H996.966L1026.09 152.158H1026.45L1054.48 83.18H1071.22L1023.17 194.018C1022.69 195.11 1021.9 196.809 1020.81 199.114C1019.84 201.541 1018.87 203.846 1017.9 206.03C1017.05 208.335 1016.44 209.852 1016.08 210.58Z" fill="black"/>
</svg>
